<svg style='mix-blend-mode: difference' width="100%" height="100%" viewBox="0 0 330 231" fill="none" xmlns="http://www.w3.org/2000/svg">
<path d="M294.876 176.33H293.32V165.677H290.248V164.16H297.948V165.677H294.876V176.33Z" fill="white"/>
<path d="M310.579 176.332H309.024V167.157L305.307 173.564H304.093L300.376 167.157V176.332H298.821V164.162H299.579V164.086L299.617 164.162H300.376L304.7 171.631L309.024 164.162H309.783L309.821 164.086V164.162H310.579V176.332Z" fill="white"/>
<path d="M0 64.9832V0.949219H13.0483C19.5345 0.949219 24.3517 1.8212 27.6138 3.56517C29.9655 4.85419 31.8241 6.63607 33.2655 8.94873C34.8586 11.5268 35.6552 14.2565 35.6552 17.2136C35.6552 20.4741 34.7828 23.3175 33.0379 25.7818C31.2931 28.2461 28.8655 30.1796 25.6793 31.5066C28.9793 32.4165 31.5966 33.7055 33.531 35.4116C37.2862 38.6341 39.1828 42.8045 39.1828 47.8847C39.1828 54.3677 36.0724 59.2584 29.8138 62.481C26.6276 64.1491 22.2276 64.9832 16.5759 64.9832H0ZM4.43793 30.2934H14.2241C16.8793 30.2934 19.0034 30.1417 20.5207 29.9143C22.0379 29.6489 23.4414 29.156 24.731 28.4736C26.8172 27.3741 28.4483 25.8576 29.6241 23.9241C30.8379 21.9906 31.4069 19.8296 31.4069 17.4032C31.4069 15.1664 30.8759 13.0812 29.7759 11.1476C28.6759 9.25203 27.1966 7.77344 25.3379 6.78772C22.8345 5.42288 19.1172 4.77837 14.1862 4.77837H4.43793V30.2934ZM4.43793 61.0782H16.0069C21.1276 61.0782 25.0345 60.3579 27.7276 58.9551C29.9655 57.7798 31.7103 56.1496 32.9621 54.1403C34.2138 52.1309 34.8207 49.932 34.8207 47.5435C34.8207 44.2072 33.6828 41.288 31.369 38.7478C29.7379 37.0039 27.6897 35.7528 25.1862 35.0324C22.6828 34.3121 19.3069 33.933 15.0207 33.933H4.43793V61.0782Z" fill="white"/>
<path d="M89.2135 4.77837H57.3515V30.5209H82.8791V34.4258H57.3515V61.0403H90.1997V64.9832H53.1411V0.949219H89.2135V4.77837Z" fill="white"/>
<path d="M89.2135 86.5166H57.3515V112.259H82.8791V116.164H57.3515V142.779H90.1997V146.721H53.1411V82.6875H89.2135V86.5166Z" fill="white"/>
<path d="M237.903 86.5166H206.041V112.259H231.569V116.164H206.041V142.779H238.89V146.721H201.831V82.6875H237.903V86.5166Z" fill="white"/>
<path d="M117.662 38.1033L97.2173 0.949219H101.769L119.786 34.1604L137.841 0.949219H142.393L121.872 38.1033V64.9832H117.662V38.1033Z" fill="white"/>
<path d="M174.862 0C180.59 0 185.862 1.44067 190.717 4.35992C195.762 7.39291 199.745 11.4495 202.628 16.4919C205.548 21.5721 206.99 27.0694 206.99 32.9458C206.99 38.8223 205.51 44.3195 202.59 49.3998C199.631 54.5938 195.648 58.6504 190.528 61.6076C185.597 64.451 180.324 65.8538 174.672 65.8538C169.324 65.8538 164.166 64.4131 159.235 61.6076C154.114 58.6504 150.093 54.5559 147.172 49.3998C144.214 44.2816 142.772 38.5948 142.772 32.4151C142.772 26.6903 144.214 21.3826 147.135 16.454C150.283 11.1841 154.266 7.16544 159.121 4.32201C164.052 1.44067 169.286 0 174.862 0ZM174.71 3.94289C166.745 3.94289 159.993 7.0517 154.493 13.2314C149.524 18.7666 147.021 25.515 147.021 33.5145C147.021 38.5569 148.31 43.3338 150.928 47.8075C153.469 52.2053 156.959 55.6933 161.397 58.2713C165.683 60.7356 170.159 61.9867 174.862 61.9867C179.603 61.9867 184.079 60.7356 188.366 58.2713C192.841 55.6933 196.331 52.2053 198.835 47.8075C201.414 43.258 202.741 38.3673 202.741 33.0217C202.741 24.226 199.555 16.9089 193.221 11.0704C188.062 6.33136 181.879 3.94289 174.71 3.94289Z" fill="white"/>
<path d="M222.579 6.74981V64.9832H218.369V0.949219H223.034L260.965 59.1068V0.949219H265.176V64.9832H260.434L222.579 6.74981Z" fill="white"/>
<path d="M281.865 0.949219H295.596C303.372 0.949219 309.972 2.54154 315.51 5.68826C320.062 8.30422 323.551 11.7163 325.865 15.8867C328.634 20.8153 330 26.5021 330 32.9093C330 42.0083 327.458 49.3254 322.338 54.8227C316.079 61.609 307.165 65.0211 295.596 65.0211H281.865V0.949219ZM286.114 4.8921V61.0403H295.938C302.5 61.0403 308.151 59.6755 312.817 56.9458C316.838 54.6331 319.91 51.6001 322.034 47.8468C324.538 43.449 325.789 38.4445 325.789 32.8714C325.789 25.0615 323.551 18.6922 319.038 13.8394C313.5 7.84927 305.8 4.8921 295.938 4.8921H286.114Z" fill="white"/>
<path d="M0 146.721V82.6875H13.0483C19.5345 82.6875 24.3517 83.5595 27.6138 85.3035C29.9655 86.5925 31.8241 88.3744 33.2655 90.687C34.8586 93.265 35.6552 95.9947 35.6552 98.9519C35.6552 102.212 34.7828 105.056 33.0379 107.52C31.2931 109.984 28.8655 111.918 25.6793 113.245C28.9793 114.155 31.5966 115.444 33.531 117.15C37.2862 120.372 39.1828 124.543 39.1828 129.623C39.1828 136.106 36.0724 140.997 29.8138 144.219C26.6276 145.887 22.2276 146.721 16.5759 146.721H0ZM4.43793 112.032H14.2241C16.8793 112.032 19.0034 111.88 20.5207 111.653C22.0379 111.425 23.4414 110.894 24.731 110.212C26.8172 109.112 28.4483 107.596 29.6241 105.662C30.8379 103.729 31.4069 101.568 31.4069 99.1415C31.4069 96.9046 30.8759 94.8195 29.7759 92.8859C28.6759 90.9903 27.1966 89.5117 25.3379 88.526C22.8345 87.1612 19.1172 86.5166 14.1862 86.5166H4.43793V112.032ZM4.43793 142.817H16.0069C21.1276 142.817 25.0345 142.096 27.7276 140.693C29.9655 139.518 31.7103 137.888 32.9621 135.879C34.2138 133.869 34.8207 131.67 34.8207 129.282C34.8207 125.945 33.6828 123.026 31.369 120.486C29.7379 118.742 27.6897 117.491 25.1862 116.771C22.6828 116.05 19.3069 115.671 15.0207 115.671H4.43793V142.817Z" fill="white"/>
<path d="M170.576 86.5534V146.72H166.366V86.5534H145.807V82.6484H191.173V86.5534H170.576Z" fill="white"/>
<path d="M119.369 86.5534V146.72H115.159V86.5534H94.6001V82.6484H139.966V86.5534H119.369Z" fill="white"/>
<path d="M252.507 82.6875H264.872C271.358 82.6875 276.252 83.5974 279.552 85.4172C282.169 86.8958 284.293 88.981 285.886 91.6727C287.669 94.6299 288.541 97.8904 288.541 101.416C288.541 105.473 287.403 109.037 285.165 112.107C282.889 115.14 279.855 117.226 275.986 118.325L291.993 146.759H287.138L271.776 119.235C269.538 119.5 267.224 119.652 264.834 119.652H256.793V146.721H252.469V82.6875H252.507ZM256.831 115.747H265.783C270.827 115.747 274.734 114.989 277.541 113.434C279.589 112.297 281.183 110.781 282.32 108.847C283.648 106.61 284.293 104.108 284.293 101.34C284.293 98.6486 283.686 96.1843 282.434 93.9475C281.183 91.7106 279.476 90.0046 277.314 88.7914C274.583 87.2749 270.752 86.5546 265.82 86.5546H256.869V115.747H256.831Z" fill="white"/>
<path d="M35.3897 169.849H4.21034V195.629H29.8897V199.534H4.21034V230.091H0V166.02H35.3897V169.849Z" fill="white"/>
<path d="M73.055 165.07C78.7826 165.07 84.055 166.511 88.9102 169.43C93.955 172.463 97.9377 176.52 100.821 181.562C103.741 186.642 105.183 192.14 105.183 198.016C105.183 203.893 103.703 209.39 100.783 214.47C97.824 219.664 93.8412 223.721 88.7205 226.678C83.7895 229.521 78.5171 230.924 72.8653 230.924C67.5171 230.924 62.3584 229.483 57.4274 226.678C52.3067 223.721 48.286 219.626 45.3653 214.47C42.4067 209.352 40.9653 203.665 40.9653 197.485C40.9653 191.761 42.4067 186.453 45.3274 181.524C48.4757 176.254 52.4584 172.236 57.3136 169.392C62.2067 166.511 67.4791 165.07 73.055 165.07ZM72.9033 169.013C64.9377 169.013 58.186 172.122 52.686 178.302C47.7171 183.837 45.2136 190.585 45.2136 198.585C45.2136 203.627 46.5033 208.404 49.1205 212.878C51.6619 217.276 55.1515 220.764 59.5895 223.342C63.8757 225.806 68.3515 227.057 73.055 227.057C77.7964 227.057 82.2722 225.806 86.5584 223.342C91.0343 220.764 94.524 217.276 97.0274 212.878C99.6067 208.328 100.934 203.438 100.934 198.092C100.934 189.296 97.7481 181.979 91.4136 176.141C86.255 171.402 80.0722 169.013 72.9033 169.013Z" fill="white"/>
<path d="M143.379 165.07C149.107 165.07 154.379 166.511 159.234 169.43C164.279 172.463 168.262 176.52 171.145 181.562C174.065 186.642 175.507 192.14 175.507 198.016C175.507 203.893 174.027 209.39 171.107 214.47C168.148 219.664 164.165 223.721 159.045 226.678C154.114 229.521 148.841 230.924 143.19 230.924C137.841 230.924 132.683 229.483 127.752 226.678C122.631 223.721 118.61 219.626 115.69 214.47C112.731 209.352 111.29 203.665 111.29 197.485C111.29 191.761 112.731 186.453 115.652 181.524C118.8 176.254 122.783 172.236 127.638 169.392C132.569 166.511 137.803 165.07 143.379 165.07ZM143.227 169.013C135.262 169.013 128.51 172.122 123.01 178.302C118.041 183.837 115.538 190.585 115.538 198.585C115.538 203.627 116.827 208.404 119.445 212.878C121.986 217.276 125.476 220.764 129.914 223.342C134.2 225.806 138.676 227.057 143.379 227.057C148.121 227.057 152.596 225.806 156.883 223.342C161.359 220.764 164.848 217.276 167.352 212.878C169.931 208.328 171.259 203.438 171.259 198.092C171.259 189.296 168.072 181.979 161.738 176.141C156.579 171.402 150.396 169.013 143.227 169.013Z" fill="white"/>
<path d="M186.886 166.02H200.617C208.393 166.02 214.993 167.612 220.531 170.759C225.083 173.375 228.572 176.787 230.886 180.957C233.655 185.886 235.021 191.572 235.021 197.98C235.021 207.079 232.479 214.396 227.359 219.893C221.1 226.679 212.186 230.091 200.617 230.091H186.886V166.02ZM191.097 169.962V226.111H200.921C207.483 226.111 213.135 224.746 217.8 222.016C221.821 219.703 224.893 216.67 227.017 212.917C229.521 208.519 230.772 203.515 230.772 197.942C230.772 190.132 228.535 183.763 224.021 178.91C218.483 172.92 210.783 169.962 200.921 169.962H191.097Z" fill="white"/>
<path d="M284.483 175.117L280.69 177.278C276.821 172.804 272.155 168.217 264.948 168.937C260.093 169.392 256.186 170.378 253.304 173.297C250.838 175.723 249.624 178.491 249.624 181.562C249.624 186.756 253.645 190.737 261.724 193.504L269.083 196.044C274.735 197.978 278.869 200.253 281.486 202.907C284.104 205.523 285.431 208.707 285.431 212.385C285.431 217.882 283.117 222.469 278.528 226.109C274.431 229.369 269.386 231 263.431 231C258.235 231 253.835 229.749 250.231 227.246C246.628 224.744 244.048 219.55 242.493 214.963L247.121 213.787C248.145 216.782 249.624 220.839 251.483 222.621C254.707 225.578 258.766 227.095 263.621 227.095C268.855 227.095 273.104 225.464 276.441 222.204C279.248 219.436 280.652 216.176 280.652 212.498C280.652 209.541 279.552 207.039 277.39 205.03C275.228 203.02 271.586 201.125 266.428 199.305L259.335 196.879C253.493 194.831 249.472 192.291 247.31 189.22C245.755 186.983 244.959 184.405 244.959 181.562C244.959 176.671 246.931 172.69 250.914 169.582C254.783 166.587 259.562 165.184 265.252 165.07C273.824 164.918 280.045 169.506 284.483 175.117Z" fill="white"/>
</svg>
